HIERARCHY
ROOT Hips
{
	OFFSET 0.000000 0.000000 0.000000
	CHANNELS 6 Xposition Yposition Zposition Xrotation Yrotation Zrotation
	JOINT LeftUpLeg_virtual
	{
		OFFSET 0.000000 0.000000 0.000000
		CHANNELS 3 Xrotation Yrotation Zrotation
		JOINT LeftUpLeg
		{
			OFFSET 15.427100 -6.655098 0.678600
			CHANNELS 3 Xrotation Yrotation Zrotation
			JOINT LeftLeg
			{
				OFFSET 4.081073 -39.591068 13.024000
				CHANNELS 3 Xrotation Yrotation Zrotation
				JOINT LeftFoot
				{
					OFFSET -4.081074 -37.707932 -15.979700
					CHANNELS 3 Xrotation Yrotation Zrotation
					JOINT LeftToeBase
					{
						OFFSET 5.346399 -15.068900 20.645000
						CHANNELS 3 Xrotation Yrotation Zrotation
						JOINT LeftToe_End
						{
							OFFSET 2.754700 0.931300 11.300900
							CHANNELS 3 Xrotation Yrotation Zrotation
							End Site
							{
								OFFSET 0 0 0
							}
						}
					}
				}
			}
		}
	}
	JOINT RightUpLeg_virtual
	{
		OFFSET 0.000000 0.000000 0.000000
		CHANNELS 3 Xrotation Yrotation Zrotation
		JOINT RightUpLeg
		{
			OFFSET -15.569500 -6.655098 0.678600
			CHANNELS 3 Xrotation Yrotation Zrotation
			JOINT RightLeg
			{
				OFFSET -4.081825 -39.591045 13.023800
				CHANNELS 3 Xrotation Yrotation Zrotation
				JOINT RightFoot
				{
					OFFSET 4.081824 -37.707954 -15.979600
					CHANNELS 3 Xrotation Yrotation Zrotation
					JOINT RightToeBase
					{
						OFFSET -5.346400 -15.068900 20.645000
						CHANNELS 3 Xrotation Yrotation Zrotation
						JOINT RightToe_End
						{
							OFFSET -2.754700 0.931300 11.300900
							CHANNELS 3 Xrotation Yrotation Zrotation
							End Site
							{
								OFFSET 0 0 0
							}
						}
					}
				}
			}
		}
	}
	JOINT Spine_virtual
	{
		OFFSET 0.000000 0.000000 0.000000
		CHANNELS 3 Xrotation Yrotation Zrotation
		JOINT Spine
		{
			OFFSET -0.279200 12.230698 -2.892100
			CHANNELS 3 Xrotation Yrotation Zrotation
			JOINT Spine1
			{
				OFFSET -0.232667 10.192268 -1.242267
				CHANNELS 3 Xrotation Yrotation Zrotation
				JOINT Spine1_split
				{
					OFFSET -0.232667 10.192268 -1.242267
					CHANNELS 3 Xrotation Yrotation Zrotation
					JOINT Spine2
					{
						OFFSET -0.232667 10.192268 -1.242267
						CHANNELS 3 Xrotation Yrotation Zrotation
						JOINT Neck_virtual
						{
							OFFSET 0.000000 0.000000 0.000000
							CHANNELS 3 Xrotation Yrotation Zrotation
							JOINT Neck
							{
								OFFSET -0.418800 17.814194 8.416900
								CHANNELS 3 Xrotation Yrotation Zrotation
								JOINT Head
								{
									OFFSET 0.000000 7.031097 3.806800
									CHANNELS 3 Xrotation Yrotation Zrotation
									JOINT HeadTop_End
									{
										OFFSET 0.000000 24.646606 12.978600
										CHANNELS 3 Xrotation Yrotation Zrotation
										End Site
										{
											OFFSET 0 0 0
										}
									}
								}
							}
						}
						JOINT LeftShoulder_virtual
						{
							OFFSET 0.000000 0.000000 0.000000
							CHANNELS 3 Xrotation Yrotation Zrotation
							JOINT LeftShoulder
							{
								OFFSET 8.476499 7.247704 -3.868750
								CHANNELS 3 Xrotation Yrotation Zrotation
								JOINT LeftShoulder_split
								{
									OFFSET 8.476499 7.247704 -3.868750
									CHANNELS 3 Xrotation Yrotation Zrotation
									JOINT LeftArm
									{
										OFFSET 9.308998 -2.777710 0.208600
										CHANNELS 3 Xrotation Yrotation Zrotation
										JOINT LeftForeArm
										{
											OFFSET 29.972298 0.000000 0.000000
											CHANNELS 3 Xrotation Yrotation Zrotation
											JOINT LeftHand
											{
												OFFSET 26.026505 0.000000 0.000000
												CHANNELS 3 Xrotation Yrotation Zrotation
												End Site
												{
													OFFSET 0 0 0
												}
											}
										}
									}
								}
							}
						}
						JOINT RightShoulder_virtual
						{
							OFFSET 0.000000 0.000000 0.000000
							CHANNELS 3 Xrotation Yrotation Zrotation
							JOINT RightShoulder
							{
								OFFSET -7.570500 7.247704 -3.868750
								CHANNELS 3 Xrotation Yrotation Zrotation
								JOINT RightShoulder_split
								{
									OFFSET -7.570500 7.247704 -3.868750
									CHANNELS 3 Xrotation Yrotation Zrotation
									JOINT RightArm
									{
										OFFSET -9.308998 -2.777710 0.208500
										CHANNELS 3 Xrotation Yrotation Zrotation
										JOINT RightForeArm
										{
											OFFSET -29.972300 0.000000 0.000000
											CHANNELS 3 Xrotation Yrotation Zrotation
											JOINT RightHand
											{
												OFFSET -26.026505 0.000000 0.000000
												CHANNELS 3 Xrotation Yrotation Zrotation
												End Site
												{
													OFFSET 0 0 0
												}
											}
										}
									}
								}
							}
						}
					}
				}
			}
		}
	}
}
MOTION
Frames: 5
Frame Time: 0.03333333
-79.377579 18.040939 1.993767 0.000000 0.000000 0.000000 -48.363586 9.761694 102.025104 -34.209904 10.413470 4.278971 60.525571 -0.594607 -17.320036 -9.502965 -15.444072 -2.233854 -5.074156 -3.266936 6.784908 0.000000 0.000000 0.000000 -56.522056 5.990531 104.497004 -61.931285 6.198839 -51.828046 107.925540 7.441039 4.836495 9.643726 5.511470 23.463563 7.961368 0.596314 3.314740 0.000000 0.000000 0.000000 -49.310967 5.958657 97.649206 13.069469 -0.844743 -7.032212 16.417560 0.147478 -2.605577 0.522297 1.443555 -1.091582 0.000000 0.000000 0.000000 12.179141 0.872839 -2.019129 42.431973 7.818151 -11.666728 -7.271663 12.851664 -2.101876 0.000000 0.000000 0.000000 14.422754 1.946414 -2.617879 0.065327 -3.327987 -12.705972 1.428281 -12.225489 -0.545823 -56.802206 -8.871485 -22.909624 46.623950 -12.459746 10.953070 0.000000 0.000000 0.000000 15.904198 1.860849 -3.104367 4.964766 19.785887 -10.721773 -9.273164 -6.173412 2.778683 -23.102405 -4.564029 16.252297 23.326827 48.780712 -15.552974 0.000000 0.000000 0.000000 
-83.633926 12.578632 3.028049 0.000000 0.000000 0.000000 -51.412845 -1.474346 108.191808 -27.850438 3.374117 -4.786533 57.280053 4.188581 -13.337987 -10.014989 -9.951057 -2.801525 -6.319720 -2.998579 5.289964 0.000000 0.000000 0.000000 -58.016276 -4.567466 109.564226 -59.219755 8.860197 -54.441379 107.144617 2.310190 5.401069 7.522571 2.850590 20.955314 3.995553 0.062114 4.274558 0.000000 0.000000 0.000000 -52.430612 -3.029126 102.577543 13.911692 -1.459703 -6.943706 16.389736 -0.302482 -1.602727 0.785249 1.976116 -0.723166 0.000000 0.000000 0.000000 11.914179 0.206171 -0.906211 39.388396 4.717877 -9.039613 -7.092179 5.571410 -2.046849 0.000000 0.000000 0.000000 14.036661 1.349645 -1.351031 -0.295250 -3.926300 -17.231019 -0.021705 -11.227692 -0.347028 -60.933053 -2.948610 -26.390022 47.954816 -14.712084 12.559783 0.000000 0.000000 0.000000 15.970123 1.180620 -2.045948 4.900890 20.093329 -10.436445 -8.965569 -5.942899 2.796447 -19.226610 -3.538239 14.826153 27.208847 46.247293 -20.047659 0.000000 0.000000 0.000000 
-87.946983 9.212837 3.600002 0.000000 0.000000 0.000000 -53.788973 -11.460190 111.786148 -24.102269 -2.960948 -9.984561 53.708301 8.966246 -9.732715 -5.086095 -3.469040 -4.110229 -6.425236 -2.453937 3.723097 0.000000 0.000000 0.000000 -58.613521 -13.276810 112.172811 -53.359729 8.038281 -57.611191 102.801061 -2.103861 5.681289 4.987767 2.464376 20.656054 0.152363 0.069125 3.934806 0.000000 0.000000 0.000000 -55.497100 -10.321128 105.320492 15.090072 -1.687656 -6.090196 15.300908 -0.348368 -0.231230 -0.547716 1.738400 0.580603 0.000000 0.000000 0.000000 10.686123 -0.008687 0.408584 34.576426 1.478817 -6.195038 -9.675348 -2.753830 -1.910871 0.000000 0.000000 0.000000 12.487771 1.202588 0.234997 -0.650689 -4.102405 -20.605627 -1.300782 -10.057484 -1.584246 -63.975199 8.784299 -26.614822 50.939824 -19.840130 17.480949 0.000000 0.000000 0.000000 14.689698 0.864191 -0.707780 5.052766 20.229443 -10.533039 -9.642234 -5.945573 3.145471 -16.792847 1.626536 12.584531 25.197579 44.133991 -19.912759 0.000000 0.000000 0.000000 
-92.028343 7.957233 3.509521 0.000000 0.000000 0.000000 -56.682825 -19.226528 112.749669 -22.121803 -6.611512 -10.462623 50.607860 13.147663 -7.060266 5.704935 2.207205 -6.738752 -5.403068 -1.811432 2.330942 0.000000 0.000000 0.000000 -60.240254 -19.679664 112.252861 -46.055846 3.917946 -59.181854 94.577629 -5.948037 5.879997 1.987437 2.936557 21.492754 -1.110054 0.630060 2.529246 0.000000 0.000000 0.000000 -59.076895 -15.827071 105.825995 16.704831 -1.613225 -4.263679 13.544579 -0.338117 1.332473 -1.388861 1.007518 1.741947 0.000000 0.000000 0.000000 8.983002 -0.076967 1.734499 28.590540 -1.372520 -3.626809 -14.262115 -10.516088 -2.405590 0.000000 0.000000 0.000000 10.357634 1.097929 1.932220 -0.909559 -4.418706 -22.195974 -2.008723 -9.049631 -3.482787 -67.111520 22.524593 -23.206046 56.504676 -25.815620 25.933364 0.000000 0.000000 0.000000 12.601587 0.615936 0.736895 5.329614 19.798111 -10.907897 -10.427724 -7.224448 4.126811 -16.542590 8.489821 10.546155 17.726660 41.089240 -15.371156 0.000000 0.000000 0.000000 
-95.691788 8.535824 2.412251 0.000000 0.000000 0.000000 -60.172764 -24.334362 110.824143 -21.115559 -6.755609 -6.816829 48.742009 16.350202 -5.500442 18.514297 5.559353 -9.494577 -4.259572 -1.306279 1.612735 0.000000 0.000000 0.000000 -63.872685 -23.105878 110.512693 -38.506650 -2.311030 -58.174210 83.490757 -8.924643 5.885160 -0.547301 3.540216 22.327856 0.662016 1.443079 0.764092 0.000000 0.000000 0.000000 -62.953703 -19.703236 104.577969 18.647287 -1.199379 -1.511524 11.713829 -0.538863 2.820352 -2.097097 0.868513 2.185188 0.000000 0.000000 0.000000 7.359760 -0.250727 2.956477 22.692117 -3.341897 -1.287421 -19.790364 -16.062722 -3.573728 0.000000 0.000000 0.000000 8.268867 0.789409 3.500418 -1.024875 -4.824043 -21.980546 -2.387992 -8.812710 -4.980941 -70.807000 33.464836 -17.584872 64.528629 -29.597129 36.878544 0.000000 0.000000 0.000000 10.313789 0.195172 2.016471 5.606121 18.423298 -11.627157 -11.311296 -9.707517 5.577733 -17.402268 14.186565 9.632835 7.308696 35.899761 -8.477307 0.000000 0.000000 0.000000 
